<svg width="20" height="20" viewBox="0 0 20 20" fill="none" xmlns="http://www.w3.org/2000/svg">
<circle cx="10" cy="10" r="10" fill="#ECEFF2"/>
<path d="M10.0303 6.46967L10.5607 5.93934L10.5607 5.93934L10.0303 6.46967ZM10.0303 7.53033L10.5607 8.06066L10.5607 8.06066L10.0303 7.53033ZM8.96967 6.46967L8.43934 5.93934L8.43934 5.93934L8.96967 6.46967ZM5.96967 9.46967L5.43934 8.93934L5.43934 8.93934L5.96967 9.46967ZM5.80691 9.71291L6.49971 10.0002L6.49993 9.99965L5.80691 9.71291ZM5.80691 10.2871L6.49993 10.0003L6.4997 9.9998L5.80691 10.2871ZM5.96967 10.5303L5.43934 11.0607L5.43934 11.0607L5.96967 10.5303ZM5.96972 10.5304L6.50005 10L5.96972 10.5304ZM8.96967 13.5303L8.43934 14.0607L8.43934 14.0607L8.96967 13.5303ZM10.0303 13.5303L10.5607 14.0607L10.5607 14.0607L10.0303 13.5303ZM10.0303 12.4697L10.5607 11.9393L10.5607 11.9393L10.0303 12.4697ZM8.31066 10.75V10C8.00731 10 7.73384 10.1827 7.61775 10.463C7.50166 10.7432 7.56583 11.0658 7.78033 11.2803L8.31066 10.75ZM8.31066 9.25L7.78033 8.71967C7.56583 8.93417 7.50166 9.25676 7.61775 9.53701C7.73384 9.81727 8.00731 10 8.31066 10V9.25ZM9.5 7V7L10.5607 8.06066C11.1464 7.47487 11.1464 6.52513 10.5607 5.93934L9.5 7ZM9.5 7H9.5L10.5607 5.93934C9.97487 5.35355 9.02513 5.35355 8.43934 5.93934L9.5 7ZM6.5 10L9.5 7L8.43934 5.93934L5.43934 8.93934L6.5 10ZM6.49993 9.99965L6.5 10L5.43934 8.93934C5.2965 9.08218 5.18752 9.24822 5.11389 9.42617L6.49993 9.99965ZM6.5 10L6.4997 10.0002L5.11411 9.42562C5.04034 9.60353 5 9.798 5 10H6.5ZM6.4997 9.9998L6.5 10H5C5 10.202 5.04034 10.3965 5.11411 10.5744L6.4997 9.9998ZM6.5 10L6.49993 10.0004L5.11389 10.5738C5.18752 10.7518 5.2965 10.9178 5.43934 11.0607L6.5 10ZM6.50005 10L6.5 10L5.43934 11.0607L5.43939 11.0607L6.50005 10ZM9.5 13L6.50005 10L5.43939 11.0607L8.43934 14.0607L9.5 13ZM9.5 13H9.5L8.43934 14.0607C9.02513 14.6464 9.97487 14.6464 10.5607 14.0607L9.5 13ZM9.5 13V13L10.5607 14.0607C11.1464 13.4749 11.1464 12.5251 10.5607 11.9393L9.5 13ZM7.78033 11.2803L9.5 13L10.5607 11.9393L8.84099 10.2197L7.78033 11.2803ZM13.5 10H8.31066V11.5H13.5V10ZM13.5 10V11.5C14.3284 11.5 15 10.8284 15 10H13.5ZM13.5 10H15C15 9.17157 14.3284 8.5 13.5 8.5V10ZM8.31066 10H13.5V8.5H8.31066V10ZM9.5 7L7.78033 8.71967L8.84099 9.78033L10.5607 8.06066L9.5 7Z" fill="#2C2543"/>
</svg>
