<svg width="20" height="20" viewBox="0 0 20 20" fill="none" xmlns="http://www.w3.org/2000/svg">
<circle cx="10" cy="10" r="10" transform="matrix(-1 0 0 1 20 0)" fill="#ECEFF2"/>
<path d="M9.96967 6.46967L9.43934 5.93934L9.43934 5.93934L9.96967 6.46967ZM9.96967 7.53033L9.43934 8.06066L9.43934 8.06066L9.96967 7.53033ZM11.0303 6.46967L11.5607 5.93934L11.5607 5.93934L11.0303 6.46967ZM14.0303 9.46967L14.5607 8.93934L14.5607 8.93934L14.0303 9.46967ZM14.1931 9.71291L13.5003 10.0002L13.5001 9.99965L14.1931 9.71291ZM14.1931 10.2871L13.5001 10.0003L13.5003 9.9998L14.1931 10.2871ZM14.0303 10.5303L14.5607 11.0607L14.5607 11.0607L14.0303 10.5303ZM14.0303 10.5304L13.5 10L14.0303 10.5304ZM11.0303 13.5303L11.5607 14.0607L11.5607 14.0607L11.0303 13.5303ZM9.96967 13.5303L9.43934 14.0607L9.43934 14.0607L9.96967 13.5303ZM9.96967 12.4697L9.43934 11.9393L9.43934 11.9393L9.96967 12.4697ZM11.6893 10.75V10C11.9927 10 12.2662 10.1827 12.3822 10.463C12.4983 10.7432 12.4342 11.0658 12.2197 11.2803L11.6893 10.75ZM11.6893 9.25L12.2197 8.71967C12.4342 8.93417 12.4983 9.25676 12.3822 9.53701C12.2662 9.81727 11.9927 10 11.6893 10V9.25ZM10.5 7V7L9.43934 8.06066C8.85355 7.47487 8.85355 6.52513 9.43934 5.93934L10.5 7ZM10.5 7H10.5L9.43934 5.93934C10.0251 5.35355 10.9749 5.35355 11.5607 5.93934L10.5 7ZM13.5 10L10.5 7L11.5607 5.93934L14.5607 8.93934L13.5 10ZM13.5001 9.99965L13.5 10L14.5607 8.93934C14.7035 9.08218 14.8125 9.24822 14.8861 9.42617L13.5001 9.99965ZM13.5 10L13.5003 10.0002L14.8859 9.42562C14.9597 9.60353 15 9.798 15 10H13.5ZM13.5003 9.9998L13.5 10H15C15 10.202 14.9597 10.3965 14.8859 10.5744L13.5003 9.9998ZM13.5 10L13.5001 10.0004L14.8861 10.5738C14.8125 10.7518 14.7035 10.9178 14.5607 11.0607L13.5 10ZM13.5 10L13.5 10L14.5607 11.0607L14.5606 11.0607L13.5 10ZM10.5 13L13.5 10L14.5606 11.0607L11.5607 14.0607L10.5 13ZM10.5 13H10.5L11.5607 14.0607C10.9749 14.6464 10.0251 14.6464 9.43934 14.0607L10.5 13ZM10.5 13V13L9.43934 14.0607C8.85355 13.4749 8.85355 12.5251 9.43934 11.9393L10.5 13ZM12.2197 11.2803L10.5 13L9.43934 11.9393L11.159 10.2197L12.2197 11.2803ZM6.5 10H11.6893V11.5H6.5V10ZM6.5 10V11.5C5.67157 11.5 5 10.8284 5 10H6.5ZM6.5 10H5C5 9.17157 5.67157 8.5 6.5 8.5V10ZM11.6893 10H6.5V8.5H11.6893V10ZM10.5 7L12.2197 8.71967L11.159 9.78033L9.43934 8.06066L10.5 7Z" fill="#2C2543"/>
</svg>
